<svg xmlns="http://www.w3.org/2000/svg" fill="#70dd60"  viewBox="0 0 16 16" height="16" width="16">
  <desc>
    Clipboard Check Fill Streamline Icon: https://streamlinehq.com
  </desc>
  <path d="M6.5 0A1.5 1.5 0 0 0 5 1.5v1A1.5 1.5 0 0 0 6.5 4h3A1.5 1.5 0 0 0 11 2.5v-1A1.5 1.5 0 0 0 9.5 0zm3 1a0.5 0.5 0 0 1 0.5 0.5v1a0.5 0.5 0 0 1 -0.5 0.5h-3a0.5 0.5 0 0 1 -0.5 -0.5v-1a0.5 0.5 0 0 1 0.5 -0.5z" stroke-width="1"></path>
  <path   d="M4 1.5H3a2 2 0 0 0 -2 2V14a2 2 0 0 0 2 2h10a2 2 0 0 0 2 -2V3.5a2 2 0 0 0 -2 -2h-1v1A2.5 2.5 0 0 1 9.5 5h-3A2.5 2.5 0 0 1 4 2.5zm6.854 7.354 -3 3a0.5 0.5 0 0 1 -0.708 0l-1.5 -1.5a0.5 0.5 0 0 1 0.708 -0.708L7.5 10.793l2.646 -2.647a0.5 0.5 0 0 1 0.708 0.708" stroke-width="1"></path>
</svg>